PathFileType	4	(X/Y/Z)	E:\Qualisys_Data\Carbon_Farble_Plate\Data\Amateur_Runner\S14\T2\S14T2V11_c3d.trc
DataRate	CameraRate	NumFrames	NumMarkers	Units	OrigDataRate	OrigDataStartFrame	OrigNumFrames
200.000000	200.000000	4	39	mm	200.000000	41	334
Frame#	Time	LSHO			RSHO			LICST			RICST			LASIS			LHEEL			RASIS			LTROC			RTROC			SACR			LTH1			LSK4			LTH2			LTH3			RHM5			LSK2			LTH4			RTH1			LTOE			RTH2			RTH3			RTH4			LLEP			RLEP			LSK1			LSK3			RSK1			LHM5			RSK2			LFT1			RSK3			RSK4			LLME			RLME			RTOE			RHEEL			RFT1			RFT2			LFT2			
		X1	Y1	Z1	X2	Y2	Z2	X3	Y3	Z3	X4	Y4	Z4	X5	Y5	Z5	X6	Y6	Z6	X7	Y7	Z7	X8	Y8	Z8	X9	Y9	Z9	X10	Y10	Z10	X11	Y11	Z11	X12	Y12	Z12	X13	Y13	Z13	X14	Y14	Z14	X15	Y15	Z15	X16	Y16	Z16	X17	Y17	Z17	X18	Y18	Z18	X19	Y19	Z19	X20	Y20	Z20	X21	Y21	Z21	X22	Y22	Z22	X23	Y23	Z23	X24	Y24	Z24	X25	Y25	Z25	X26	Y26	Z26	X27	Y27	Z27	X28	Y28	Z28	X29	Y29	Z29	X30	Y30	Z30	X31	Y31	Z31	X32	Y32	Z32	X33	Y33	Z33	X34	Y34	Z34	X35	Y35	Z35	X36	Y36	Z36	X37	Y37	Z37	X38	Y38	Z38	X39	Y39	Z39	

42	0.205	-2022.369873046875	1401.359375	-481.4237670898438	-2015.258422851562	1390.055419921875	-174.9786376953125	-2079.83984375	952.9495849609376	-477.3634643554688	-2063.781494140625	960.5228271484376	-194.6926879882812	-2038.88671875	904.1257934570312	-455.1354675292969	-2425.86962890625	474.0021667480469	-364.265625	-2034.203491210938	923.7714233398438	-214.7225189208984	-2165.73876953125	828.2980346679688	-492.6958923339844	-2165.879638671875	839.2730712890625	-168.7875213623047	-2216.25244140625	954.0385131835938	-349.9377136230469	-2045.589233398438	624.5050048828125	-517.2926025390625	-2241.257568359375	481.5310363769531	-465.3686218261719	-2117.23583984375	605.1671142578125	-494.0682067871094	-2012.5087890625	529.400146484375	-506.2322692871094	-2021.261596679688	74.58893585205078	-211.1293487548828	-2153.07666015625	498.7258911132812	-499.158447265625	-2090.722900390625	512.2875366210938	-486.9444580078125	-1972.47412109375	657.7064819335938	-166.9258117675781	-2428.162841796875	222.9762878417969	-427.152587890625	-2047.819091796875	637.21240234375	-163.8191528320312	-1942.824829101562	567.3822021484375	-200.3394470214844	-2021.256469726562	541.6881713867188	-187.7987670898438	-2055.105224609375	474.1334838867188	-503.037841796875	-1977.191650390625	481.3544921875	-198.0575866699219	-2134.646240234375	414.0081481933594	-492.4274597167969	-2232.439453125	401.1987609863281	-467.471435546875	-1984.750610351562	355.6404724121094	-204.8889007568359	-2453.62451171875	297.72412109375	-477.1225280761719	-2066.14697265625	382.1215515136719	-197.676025390625	-2451.111083984375	460.7478637695312	-341.7313232421875	-2023.363525390625	262.1448364257812	-225.3432464599609	-2096.1806640625	292.0742797851562	-215.8506164550781	-2401.074951171875	427.992431640625	-437.5576171875	-2133.607666015625	126.7618789672852	-248.0116271972656	-1939.591918945312	75.88722229003906	-270.0271911621094	-2195.640869140625	107.7875823974609	-308.2518615722656	-2183.15087890625	73.6724624633789	-330.63623046875	-2201.72802734375	82.84507751464844	-278.8136596679688	-2460.6171875	475.6315307617188	-396.7565307617188
43	0.21	-2008.025268554688	1399.580810546875	-481.0989379882812	-1996.64013671875	1388.492065429688	-174.955078125	-2066.17138671875	952.1707153320312	-477.4097595214844	-2048.648681640625	958.7755126953124	-194.0619049072266	-2024.427978515625	903.4114379882812	-454.3035888671875	-2401.263916015625	471.5396728515625	-364.6903991699219	-2020.25830078125	921.981201171875	-214.0736999511719	-2151.574951171875	827.3959350585938	-491.1875305175781	-2150.49169921875	837.3435668945312	-167.5548248291016	-2202.717041015625	952.158935546875	-350.1241149902344	-2025.040283203125	625.5732421875	-517.3023681640625	-2216.199951171875	481.3922729492188	-465.8695373535156	-2095.507568359375	604.0156860351562	-492.9672241210938	-1989.03125	531.6265258789062	-506.3275451660156	-2021.560791015625	74.31208038330078	-211.018798828125	-2127.581298828125	499.2137451171875	-498.8185119628906	-2065.613037109375	511.4198303222656	-485.5527038574219	-1963.393188476562	653.3977661132812	-165.8905029296875	-2397.04443359375	219.9892425537109	-428.4114685058594	-2037.395385742188	633.7919311523438	-163.2241668701172	-1932.790771484375	562.383544921875	-198.7713623046875	-2012.7265625	537.7791748046875	-188.4451293945312	-2030.580932617188	475.5996398925781	-503.3058166503906	-1970.38330078125	476.7178649902344	-197.303466796875	-2108.07080078125	414.4963684082031	-492.5473022460938	-2205.952880859375	400.5803527832031	-467.2008361816406	-1978.657470703125	351.7341003417969	-204.5148315429688	-2424.637939453125	294.3700866699219	-477.8583374023438	-2059.328857421875	378.5974426269531	-196.2672119140625	-2426.441650390625	457.8914184570312	-343.11328125	-2019.536499023438	258.754638671875	-226.0785675048828	-2090.67724609375	289.8558349609375	-215.5020294189453	-2374.898681640625	425.7773132324219	-438.0603332519531	-2133.2978515625	126.8066253662109	-247.8065032958984	-1939.536743164062	75.70010375976562	-270.0229797363281	-2195.599853515625	108.2845993041992	-308.0039367675781	-2182.985595703125	74.00775909423828	-330.6505432128906	-2201.58544921875	82.90801239013672	-278.6932373046875	-2435.289794921875	471.7691955566406	-398.2684020996094
44	0.215	-1993.653564453125	1398.28662109375	-481.7820739746094	-1978.593139648438	1387.70654296875	-175.010009765625	-2051.5341796875	950.5960083007812	-473.6343383789062	-2034.102172851562	957.58544921875	-193.2604675292969	-2008.201416015625	901.8923950195312	-451.9057922363281	-2376.813232421875	467.6069030761719	-365.4245300292969	-2004.14599609375	921.0865478515624	-213.3464508056641	-2137.42431640625	826.699462890625	-490.4386291503906	-2136.17529296875	837.1729736328125	-166.4527587890625	-2188.596923828125	950.3565673828124	-349.9945373535156	-2004.469116210938	626.9867553710938	-516.98828125	-2191.010986328125	480.7174987792969	-465.8132019042969	-2073.9111328125	603.9520263671875	-491.9694519042969	-1965.863891601562	534.2793579101562	-506.1663818359375	-2021.666015625	73.87444305419922	-210.7403259277344	-2101.958740234375	499.3941955566406	-498.1593017578125	-2041.478759765625	511.7228698730469	-484.6857604980469	-1951.203002929688	647.9087524414062	-164.3379211425781	-2365.1669921875	217.5339965820312	-427.456298828125	-2026.312866210938	631.133544921875	-162.5264739990234	-1925.048828125	556.730712890625	-198.4811706542969	-2005.047241210938	534.6630859375	-188.4540100097656	-2005.606323242188	477.0605163574219	-502.4301452636719	-1966.472778320312	471.9365539550781	-198.8187713623047	-2082.060791015625	415.5130615234375	-492.0528869628906	-2179.869873046875	401.0247802734375	-467.3992919921875	-1973.319946289062	347.0824890136719	-205.3666534423828	-2394.593994140625	290.4051208496094	-477.9480285644531	-2053.18115234375	376.1459350585938	-195.2846374511719	-2403.151123046875	454.3603210449219	-344.4054260253906	-2015.871459960938	256.0581970214844	-226.1293640136719	-2086.2197265625	287.5904846191406	-214.8277740478516	-2348.92626953125	423.2399597167969	-438.6722412109375	-2132.667236328125	126.805061340332	-247.6604614257812	-1939.5859375	75.39665985107422	-270.0944213867188	-2195.3974609375	108.7534790039062	-307.89404296875	-2182.854248046875	74.30233001708984	-330.5400085449219	-2201.836181640625	82.78741455078125	-278.4970397949219	-2410.95947265625	466.7146911621094	-398.19140625
45	0.22	-1979.25341796875	1396.596923828125	-481.5637817382812	-1960.70166015625	1386.693481445312	-175.2982482910156	-2038.065673828125	950.6439819335938	-474.0867309570312	-2019.308349609375	956.32861328125	-192.0348510742188	-1994.15673828125	902.0084838867188	-451.9451904296875	-2353.060302734375	464.6435852050781	-366.560791015625	-1989.22607421875	920.1337280273438	-213.0055694580078	-2122.327880859375	825.9791259765625	-489.0000915527344	-2121.736572265625	837.0231323242188	-164.6820068359375	-2173.82421875	948.809326171875	-349.8666076660156	-1983.73876953125	628.6286010742188	-516.485595703125	-2164.911865234375	480.6359252929688	-465.5536499023438	-2052.80126953125	603.7512817382812	-490.7525329589844	-1942.579711914062	537.64404296875	-506.2642211914062	-2021.909423828125	73.72016143798828	-210.4975128173828	-2077.191162109375	500.8108215332031	-498.3600463867188	-2018.282470703125	513.0443115234375	-484.4972534179688	-1941.464111328125	643.254150390625	-163.7701873779297	-2333.490966796875	213.8572998046875	-427.3577880859375	-2015.931274414062	629.1094970703125	-161.7013854980469	-1916.306274414062	551.351806640625	-197.8026580810547	-1997.973510742188	531.7182006835938	-188.6293640136719	-1980.743286132812	479.1659240722656	-501.9147644042969	-1960.294799804688	468.7600708007812	-197.0778198242188	-2055.154541015625	416.5191040039062	-491.2758483886719	-2153.220703125	400.5389099121094	-467.02880859375	-1968.503784179688	344.7272033691406	-206.3384857177734	-2364.65087890625	286.0307922363281	-478.1576843261719	-2048.047607421875	374.4004211425781	-194.5864868164062	-2377.953857421875	449.7313232421875	-345.1629638671875	-2012.265258789062	253.4273834228516	-227.0356750488281	-2082.606689453125	286.8180236816406	-214.1719665527344	-2323.45849609375	420.6253051757812	-439.4826965332031	-2132.69580078125	127.0899963378906	-247.5679931640625	-1940.044067382812	74.92206573486328	-270.4180603027344	-2195.52099609375	109.4017486572266	-307.8958129882812	-2182.773681640625	74.57319641113281	-330.5997619628906	-2201.36181640625	83.66033935546875	-278.1996459960938	-2386.25390625	462.320068359375	-399.098876953125
